<svg id="visual" viewBox="0 0 2000 3000" width="2000" height="3000" xmlns="http://www.w3.org/2000/svg" xmlns:xlink="http://www.w3.org/1999/xlink" version="1.1"><path d="M0 571L55.5 566C111 561 222 551 333.2 541C444.3 531 555.7 521 666.8 471C778 421 889 331 1000 296C1111 261 1222 281 1333.2 301C1444.3 321 1555.7 341 1666.8 376C1778 411 1889 461 1944.5 486L2000 511L2000 0L1944.5 0C1889 0 1778 0 1666.8 0C1555.7 0 1444.3 0 1333.2 0C1222 0 1111 0 1000 0C889 0 778 0 666.8 0C555.7 0 444.3 0 333.2 0C222 0 111 0 55.5 0L0 0Z" fill="#0066ff"></path><path d="M0 991L55.5 1021C111 1051 222 1111 333.2 1141C444.3 1171 555.7 1171 666.8 1136C778 1101 889 1031 1000 1011C1111 991 1222 1021 1333.2 1041C1444.3 1061 1555.7 1071 1666.8 1046C1778 1021 1889 961 1944.5 931L2000 901L2000 509L1944.5 484C1889 459 1778 409 1666.8 374C1555.7 339 1444.3 319 1333.2 299C1222 279 1111 259 1000 294C889 329 778 419 666.8 469C555.7 519 444.3 529 333.2 539C222 549 111 559 55.5 564L0 569Z" fill="#0080ef"></path><path d="M0 1201L55.5 1266C111 1331 222 1461 333.2 1516C444.3 1571 555.7 1551 666.8 1521C778 1491 889 1451 1000 1441C1111 1431 1222 1451 1333.2 1461C1444.3 1471 1555.7 1471 1666.8 1431C1778 1391 1889 1311 1944.5 1271L2000 1231L2000 899L1944.5 929C1889 959 1778 1019 1666.8 1044C1555.7 1069 1444.3 1059 1333.2 1039C1222 1019 1111 989 1000 1009C889 1029 778 1099 666.8 1134C555.7 1169 444.3 1169 333.2 1139C222 1109 111 1049 55.5 1019L0 989Z" fill="#0090d1"></path><path d="M0 2041L55.5 2131C111 2221 222 2401 333.2 2411C444.3 2421 555.7 2261 666.8 2206C778 2151 889 2201 1000 2246C1111 2291 1222 2331 1333.2 2306C1444.3 2281 1555.7 2191 1666.8 2171C1778 2151 1889 2201 1944.5 2226L2000 2251L2000 1229L1944.5 1269C1889 1309 1778 1389 1666.8 1429C1555.7 1469 1444.3 1469 1333.2 1459C1222 1449 1111 1429 1000 1439C889 1449 778 1489 666.8 1519C555.7 1549 444.3 1569 333.2 1514C222 1459 111 1329 55.5 1264L0 1199Z" fill="#0097ad"></path><path d="M0 3001L55.5 3001C111 3001 222 3001 333.2 3001C444.3 3001 555.7 3001 666.8 3001C778 3001 889 3001 1000 3001C1111 3001 1222 3001 1333.2 3001C1444.3 3001 1555.7 3001 1666.8 3001C1778 3001 1889 3001 1944.5 3001L2000 3001L2000 2249L1944.5 2224C1889 2199 1778 2149 1666.8 2169C1555.7 2189 1444.3 2279 1333.2 2304C1222 2329 1111 2289 1000 2244C889 2199 778 2149 666.8 2204C555.7 2259 444.3 2419 333.2 2409C222 2399 111 2219 55.5 2129L0 2039Z" fill="#009473"></path></svg>